# xmcd CD database file
#
# Track frame offsets:
#	150
#	17535
#	29297
#	47872
#	61735
#	78352
#	94355
#	107270
#	121132
#	137965
#	154175
#	168017
#	187547
#	206595
#
# Disc length: 2963 seconds
#
# Revision: 0
# Processed by: cddbd v1.4PL0 Copyright (c) Steve Scherf et al.
# Submitted via: CDex 1.40Release
#
DISCID=a40b910e
DTITLE=Blandet - Alle tiders børnesange vol. 3
DYEAR=2000
DGENRE=Blues
TTITLE0=Fra Engeland til Skotland
TTITLE1=Tornerose var et vakkert barn
TTITLE2=I en skov en hytte lå
TTITLE3=Bro bro brille
TTITLE4=Tommelfingersangen
TTITLE5=Langt oppe bag Norges kyster
TTITLE6=Op lille Hans
TTITLE7=Der bor en bager
TTITLE8=Se min kjole
TTITLE9=Langt ud' i skoven
TTITLE10=Tag den ring
TTITLE11=Så går vi rundt om en enebærbusk
TTITLE12=Boogie woogie
TTITLE13=Der kom en mand
EXTD=YEAR: 2000 ID3G: 0
EXTT0=
EXTT1=
EXTT2=
EXTT3=
EXTT4=
EXTT5=
EXTT6=
EXTT7=
EXTT8=
EXTT9=
EXTT10=
EXTT11=
EXTT12=
EXTT13=
PLAYORDER=
